<svg width="606" height="360" viewBox="0 0 606 360" fill="none" xmlns="http://www.w3.org/2000/svg">
<path fill-rule="evenodd" clip-rule="evenodd" d="M147 2.27202C103.719 28.318 101.908 56.368 142.5 71.952C154.628 76.609 190.839 95.047 202.281 102.392C220.969 114.39 234.485 125.524 236.65 130.704C237.407 132.517 238.496 134 239.068 134C241.836 134 245 144.926 245 154.481C245 163.205 244.531 165.665 241.707 171.748C239.664 176.151 242.08 175.24 247.91 169.41C255.402 161.918 261.352 150.809 263.477 140.344C263.948 138.022 264.83 136.998 266.809 136.47C269.5 135.753 269.5 135.753 266.75 134.793C265.238 134.265 264 133.248 264 132.532C264 129.567 260.622 121.069 259.232 120.535C258.003 120.064 257.828 120.681 258.266 123.949C258.871 128.457 257.807 134.124 255.246 140.036C252.86 145.542 250.682 144.916 249.867 138.49C246.993 115.834 222.537 95.353 178 78.304C174.425 76.936 170.6 75.444 169.5 74.988C167.5 74.16 155.155 69.733 149.5 67.815C120.522 57.99 110.888 45.073 121.824 30.711C127.811 22.849 132.606 20.709 129.968 27.077C125.201 38.585 132.416 49.413 150.893 58.478C153.977 59.991 157.281 61.628 158.236 62.115C160.505 63.271 163 63.246 163 62.067C163 61.554 162.015 60.822 160.812 60.44C151.638 57.529 137.151 44.184 135.061 36.719C132.858 28.851 138.823 14.883 149.22 3.56101C150.199 2.49501 151 1.25801 151 0.811011C151 -0.186989 151.22 -0.267982 147 2.27202ZM164.5 64C164.84 64.55 165.541 65 166.059 65C166.577 65 167 64.55 167 64C167 63.45 166.298 63 165.441 63C164.584 63 164.16 63.45 164.5 64ZM513.395 106.908C504.291 111.043 503.272 114.998 511.309 115.004C517.413 115.008 519.504 116.138 531.378 125.843C536.601 130.113 542.209 133.693 545.936 135.139C552.795 137.798 553.602 139 548.529 139C543.601 139 534.85 134.852 526.593 128.602C507.859 114.423 497.399 118.347 508.039 135.563C520.101 155.079 553.306 161.394 560.94 145.624C570.894 125.062 535.995 96.645 513.395 106.908ZM118.812 130.521C118.526 130.807 112.713 131.476 105.896 132.007C88.5862 133.355 74.8512 135.495 63.0002 138.69C59.9752 139.506 56.0582 140.532 54.2962 140.971C33.5052 146.147 27.0822 156.622 30.9272 179.083C31.4372 182.062 32.4012 187.65 33.0692 191.5C38.3352 221.864 59.7962 257 84.2572 275.301C89.3292 279.096 88.9632 278.022 83.2262 272.279C54.2082 243.233 38.6592 213.586 34.0402 178.5C32.2362 164.794 32.9692 163.227 38.4882 168.987C60.4952 191.957 135.497 202.27 227.5 194.977C249.638 193.222 275.975 190.358 276.707 189.626C277.719 188.614 271.969 187.786 268.247 188.407C256.995 190.286 194.147 193.249 184.075 192.376C172.924 191.409 160.327 183.136 158.417 175.524C156.664 168.539 168.59 161.617 188.5 158.063C215.281 153.282 215.616 153.154 201.5 153.108C146.83 152.929 101.027 159.993 72.2542 173.039C65.1202 176.273 55.3542 173.897 44.6352 166.318C17.7262 147.292 70.4582 132.931 171 131.904C185.836 131.753 189.704 131.493 185 130.964C177.528 130.125 119.597 129.736 118.812 130.521ZM465 133.5C465 134.325 465.395 135 465.879 135C469.093 135 470.348 148.523 467.922 157.016C467.218 159.482 466.532 166.675 466.398 173C466.264 179.325 466.12 184.713 466.077 184.973C466.035 185.232 465.349 184.516 464.554 183.38C461.94 179.649 460.547 168.879 461.844 162.424C463.78 152.784 463.356 141.312 460.918 137.368C458.293 133.12 457.707 133.153 452.946 137.82C436.874 153.574 441.577 192.388 459.934 195.489C480.078 198.892 493.662 169.13 482.797 145.399C478.856 136.791 465 127.527 465 133.5ZM365.5 147.67C343.177 152.557 335.108 187.089 356.315 186.978C371.546 186.898 386.107 166.765 380.551 153.468C378.714 149.072 378.498 149.111 376.16 154.25C375.071 156.644 370.646 161.994 366.029 166.5C361.519 170.9 357.43 175.512 356.94 176.75C355.637 180.043 353.624 179.636 354.469 176.25C355.315 172.863 359.003 167.924 365.125 161.981C374.855 152.536 375.037 145.582 365.5 147.67ZM564.198 161.857C563.239 162.465 563.834 163.399 566.457 165.399C570.577 168.542 572.987 172.956 575.402 181.781C576.347 185.235 578.665 190.973 580.553 194.531C584.204 201.414 584.064 202.366 579.93 198.749C576.702 195.924 573.692 190.438 570.557 181.661C563.73 162.55 555.404 161.996 555.56 180.665C555.769 205.827 583.386 222.836 593.106 203.79C601.995 186.374 578.736 152.635 564.198 161.857ZM514 165.669C492.37 173.033 485.345 204.5 505.331 204.5C521.183 204.5 535.628 185.961 530.605 172.06C528.852 167.21 527.319 167.203 525.87 172.039C524.947 175.122 522.958 177.673 518.219 181.852C514.698 184.959 510.229 189.659 508.289 192.297C504.393 197.593 503.456 197.755 504.511 192.949C504.956 190.922 507.895 186.948 512.56 182.065C524.564 169.501 525.237 161.843 514 165.669ZM401.541 172.933C401.224 173.446 402.347 174.683 404.037 175.681C405.727 176.679 408.524 179.747 410.252 182.498C411.98 185.249 414.915 189.228 416.775 191.339C418.634 193.45 419.927 195.407 419.647 195.686C418.451 196.883 413.147 192.385 408.665 186.372C401.56 176.84 396.992 175.64 397.009 183.309C397.029 191.882 405.5 201.97 414.357 203.968C431.91 207.927 431.7 182.653 414.104 173.554C410.819 171.855 402.463 171.442 401.541 172.933ZM329 179.55C329 179.852 329.614 181.314 330.364 182.8C331.846 185.734 333.252 198 332.106 198C331.281 198 329.459 192.987 328.471 188C327.05 180.828 323.762 179.579 322.105 185.581C319.751 194.109 325.311 204 332.459 204C341.103 204 343.015 190.4 335.491 182.422C332.712 179.475 329 177.832 329 179.55ZM141.5 240.023C112.872 244.315 115.419 291.915 144.377 293.774C157.629 294.624 171.993 284.478 169.237 276.212C168.299 273.396 156 275.354 156 278.32C156 282.136 146.213 284.196 140.967 281.483C132.547 277.129 132.001 257.227 140.163 252.13C145.302 248.921 153.912 250.996 156.54 256.078C158.888 260.618 169.686 260.248 169.196 255.644C168.068 245.069 155.421 237.936 141.5 240.023ZM192.192 241.71C191.686 242.695 188.249 252.5 184.555 263.5C180.862 274.5 177.461 284.4 176.998 285.5C174.063 292.47 174.943 294.013 181.832 293.985C186.827 293.964 188.003 293.003 189.95 287.356C191.625 282.5 191.625 282.5 199.051 282.201C209.568 281.778 210.716 282.225 212.062 287.26C213.644 293.178 214.601 294.002 219.872 293.985C227.796 293.958 227.791 294 222.018 277.383C219.175 269.197 216.152 260.25 215.302 257.5C209.953 240.208 210.214 240.529 201.26 240.21C194.263 239.962 192.983 240.174 192.192 241.71ZM234 266.37C234 295.365 233.696 294 240.148 294C246.414 294 247 292.97 247 281.965C247 272 247 272 256.981 272C266.68 272 266.979 271.932 267.564 269.602C269.188 263.131 268.413 262.546 257.5 262C247.5 261.5 247.5 261.5 247.199 256.282C246.841 250.089 246.755 250.131 260.5 249.75C269.5 249.5 269.5 249.5 269.5 245C269.5 240.5 269.5 240.5 251.75 240.227C234 239.954 234 239.954 234 266.37ZM277 266.361C277 297.441 274.676 293.973 295.5 293.973C314.065 293.973 314.177 293.937 313.799 288.12C313.5 283.5 313.5 283.5 302 283C290.5 282.5 290.5 282.5 290.199 277.284C289.898 272.069 289.898 272.069 300.699 271.784C311.5 271.5 311.5 271.5 311.803 266.784C312.107 262.069 312.107 262.069 301.303 261.784C290.5 261.5 290.5 261.5 290.199 256.282C289.84 250.062 289.711 250.123 304 249.749C313.5 249.5 313.5 249.5 313.5 245C313.5 240.5 313.5 240.5 295.25 240.227C277 239.955 277 239.955 277 266.361ZM370.227 242.116C355.013 249.648 352.104 275.582 365.125 287.621C376.222 297.881 396.295 295.37 402.921 282.893C407.479 274.31 397.685 270.649 391.336 278.563C381.268 291.112 366.981 278.344 370.637 260.065C372.774 249.379 393 247.581 393 258.077C393 258.585 395.759 259 399.131 259C405.262 259 405.262 259 404.673 255.374C402.603 242.617 383.821 235.388 370.227 242.116ZM414 266.319C414 295.297 413.719 294 420 294C425.604 294 425.999 293.419 426.015 285.143C426.033 276.247 426.714 274.719 430.464 275.17C433.214 275.5 433.535 275.923 440.22 288C443.374 293.697 450.195 296.062 454.893 293.087C456.341 292.171 456.452 292.43 449.167 279.72C446.497 275.061 446.415 272.383 448.903 271.052C454.461 268.077 456.514 256.178 452.71 248.985C448.97 241.911 445.223 240.562 428.25 240.176C414 239.852 414 239.852 414 266.319ZM478.151 241.717C477.079 243.721 469.741 264.724 464.301 281.363C460.354 293.433 460.473 293.957 467.168 293.985C472.717 294.008 473.755 293.254 475.529 287.912C477.443 282.152 478.33 281.775 488.971 282.201C496.419 282.5 496.419 282.5 497.711 287C499.29 292.501 501.169 294.005 506.441 293.985C513.574 293.958 513.627 294.609 504.184 266.472C495.468 240.5 495.468 240.5 487.29 240.21C480.265 239.962 478.977 240.174 478.151 241.717ZM519.689 240.644C519.31 241.023 519 252.718 519 266.631C519 294.879 518.774 294.019 526.184 293.985C531.548 293.96 531.897 293.293 532.211 282.465C532.5 272.5 532.5 272.5 541.946 272.21C552.756 271.878 554.223 271.12 553.801 266.086C553.5 262.5 553.5 262.5 544.054 262.21C538.859 262.05 534.021 261.433 533.304 260.837C532.249 259.962 531.339 251.348 532.25 250.868C532.388 250.796 537.675 250.459 544 250.118C555.5 249.5 555.5 249.5 555.5 245C555.5 240.5 555.5 240.5 537.939 240.228C528.28 240.078 520.068 240.265 519.689 240.644ZM561 244.981C561 250 561 250 567.418 250C577.748 250 577 248.284 577 271.99C577 295.232 576.571 293.975 584.5 293.971C589.947 293.968 589.938 294.005 590.229 271.454C590.5 250.5 590.5 250.5 598.303 250.207C606.106 249.914 606.106 249.914 605.803 245.207C605.308 237.51 561 237.286 561 244.981ZM440.25 253.063C444.867 258.758 440.137 265.286 431.743 264.802C426.229 264.484 424.466 260.249 426.491 252.182C427.321 248.874 437.376 249.518 440.25 253.063ZM204.46 263.081C207.322 271.817 206.75 273.251 200.586 272.8C196.024 272.465 195.474 270.292 197.784 261.722C200.087 253.175 201.296 253.421 204.46 263.081ZM490.472 263.675C492.735 271.443 492.2 273.005 487.281 272.985C480.135 272.956 480.045 272.057 485.579 256.072C486.424 253.633 488.473 256.818 490.472 263.675ZM324 266.5C324 271 324 271 336 271C348 271 348 271 348 266.5C348 262 348 262 336 262C324 262 324 262 324 266.5ZM26.0002 295.059C26.0002 295.641 26.4502 295.84 27.0002 295.5C27.5502 295.16 28.0002 294.684 28.0002 294.441C28.0002 294.198 27.5502 294 27.0002 294C26.4502 294 26.0002 294.477 26.0002 295.059ZM17.5002 298.457C-22.8138 321.828 9.7972 351.919 82.7832 358.698C93.3042 359.675 93.7522 357.138 83.2722 355.929C79.5472 355.499 75.1502 354.874 73.5002 354.54C71.8502 354.206 68.0252 353.436 65.0002 352.828C21.1642 344.025 0.970196 328.701 9.9652 311.068C11.7712 307.529 21.4452 298 23.2332 298C23.6552 298 24.0002 297.55 24.0002 297C24.0002 295.448 21.8672 295.926 17.5002 298.457ZM81.3752 313.64C79.4282 321.401 98.9812 332.325 109.751 329.493C113.188 328.59 110.571 327.185 105.236 327.07C103.441 327.032 101.191 326.596 100.236 326.103C99.2812 325.609 96.5592 324.403 94.1872 323.423C89.4982 321.484 85.3522 317.252 84.3912 313.423C83.5932 310.241 82.2042 310.341 81.3752 313.64ZM394.229 312.669C392.626 313.314 389.456 319.165 389.986 320.5C390.205 321.05 390.635 324.546 390.942 328.269C391.619 336.474 393.384 337.169 393.803 329.395C393.97 326.299 394.785 322.732 395.614 321.467C396.968 319.399 396.957 319.075 395.497 318.258C394.028 317.436 394.022 317.226 395.437 316.052C396.297 315.339 397 314.135 397 313.378C397 311.951 396.398 311.797 394.229 312.669ZM409.75 313.392C408.788 314.123 408 315.178 408 315.738C408 316.297 407.33 317.311 406.511 317.991C405.692 318.671 405.355 319.738 405.761 320.363C406.167 320.988 406.725 324.546 407 328.269C407.631 336.814 409.343 337.043 410 328.671C410.275 325.167 411.074 321.61 411.776 320.767C412.828 319.501 412.766 319.124 411.417 318.607C409.913 318.029 409.911 317.785 411.392 315.525C413.874 311.736 413.158 310.805 409.75 313.392ZM152.135 317.75C151.438 319.813 150.489 322.4 150.027 323.5C147.362 329.838 146.034 334.245 146.541 335.066C147.509 336.633 149 336.108 149 334.2C149 329.01 158.808 328.004 160.694 333C161.889 336.167 164 337.084 164 334.435C164 333.575 163.137 330.762 162.083 328.185C161.029 325.608 159.392 321.363 158.447 318.75C156.307 312.836 153.923 312.458 152.135 317.75ZM281 324.5C281 330.833 281.397 335 282 335C282.603 335 283 330.833 283 324.5C283 318.167 282.603 314 282 314C281.397 314 281 318.167 281 324.5ZM507.429 315.325C506.363 318.102 507.477 335.331 508.75 335.752C509.648 336.05 510 334.626 510 330.694C510 324.175 512.354 320.343 515.704 321.406C518.139 322.179 518.968 324.679 518.986 331.309C518.995 334.257 519.387 335.879 520 335.5C520.55 335.16 521 331.774 521 327.976C521 320.038 519.463 318.315 513.395 319.454C510.139 320.065 510 319.966 510 317.045C510 313.97 508.368 312.878 507.429 315.325ZM158 325.111C158 326.543 157.275 327 155 327C151.641 327 151.521 326.672 153.156 321.983C154.427 318.335 158 320.642 158 325.111ZM191.613 319.72C191.217 320.116 189.905 320.453 188.697 320.47C186.422 320.501 184.918 333.546 186.474 339.75C187.302 343.053 188.826 342.491 189.187 338.75C189.487 335.638 189.662 335.514 193.312 335.832C198.168 336.255 201 333.363 201 327.982C201 321.912 194.842 316.491 191.613 319.72ZM213.229 319.669C209.228 321.279 207.95 329.396 211.073 333.365C215.412 338.881 225 335.394 225 328.299C225 321.74 219.005 317.345 213.229 319.669ZM234.658 319.675C233.621 320.713 233.886 342 234.937 342C235.452 342 236.014 340.538 236.187 338.75C236.487 335.635 236.66 335.514 240.329 335.833C245.791 336.309 248 334.02 248 327.884C248 321.318 240.476 315.111 238.746 320.25C238.411 321.246 238.019 321.248 236.821 320.259C235.993 319.576 235.02 319.313 234.658 319.675ZM294.443 320.418C291.985 322.215 293.424 323.841 296.032 322.212C299.904 319.794 303.577 322.395 300.879 325.646C299.99 326.717 300.084 327.436 301.286 328.769C303.375 331.085 301.344 334 297.64 334C294.356 334 293.829 330.119 297 329.29C299.734 328.575 299.528 327 296.7 327C293.809 327 292 328.761 292 331.578C292 334.86 294.215 336.065 299.88 335.864C305 335.683 305 335.683 305 328.996C305 319.88 300.348 316.1 294.443 320.418ZM315 327.733C315 332.578 315.414 336 316 336C316.55 336 317 333.5 317 330.444C317 325.511 317.347 324.571 320.085 322.07C323.17 319.252 323.17 319.252 319.085 319.359C315 319.466 315 319.466 315 327.733ZM346.452 321.646C341.35 327.151 344.581 336 351.692 336C354.803 336 357.928 333.55 356.506 332.226C356.077 331.827 355.525 332.063 355.28 332.75C354.343 335.372 349.14 334.172 347.474 330.95C344.697 325.579 348.727 319.643 353.633 321.879C356.873 323.355 358.198 322.349 355.557 320.418C352.598 318.254 349.167 318.717 346.452 321.646ZM368.452 321.646C362.936 327.598 366.775 336.467 374.587 335.817C377.671 335.561 378.763 334.88 380.284 332.266C385.322 323.607 375.12 314.451 368.452 321.646ZM423.5 320.575C420.652 322.727 420.611 332.511 423.441 334.581C426.013 336.461 431.753 336.39 433.69 334.452C435.864 332.279 434.916 331.828 431.159 333.246C427.649 334.571 424.5 333.457 424.5 330.891C424.5 329.931 426.044 329.403 429.481 329.186C436.464 328.745 437.97 325.879 433.545 321.455C430.747 318.657 426.528 318.287 423.5 320.575ZM446.635 321.073C443.33 323.672 442.923 330.452 445.867 333.847C448.132 336.458 455.051 336.849 457.02 334.476C458.839 332.284 457.842 331.856 454.159 333.246C450.588 334.594 447.746 333.534 447.177 330.643C446.911 329.294 447.752 329 451.868 329C457.146 329 458.664 327.912 458.147 324.5C457.393 319.527 451.014 317.628 446.635 321.073ZM488.75 320.08C485.088 322.213 486.529 326.655 491.5 328.553C494.609 329.741 496 330.848 496 332.136C496 334.308 491.19 334.79 489.217 332.817C487.743 331.343 486.551 332.387 487.345 334.457C488.72 338.039 499 335.504 499 331.584C499 329.948 495.767 327.009 493.921 326.968C493.14 326.951 491.62 326.271 490.545 325.458C487.429 323.101 490.779 320.123 494.592 321.86C497.717 323.284 498.811 322.682 497.02 320.524C495.582 318.792 491.352 318.565 488.75 320.08ZM532.636 321.636C527.279 326.994 530.59 336 537.918 336C542.963 336 545 333.625 545 327.744C545 319.837 537.929 316.344 532.636 321.636ZM554.589 320.629C553.196 324.258 553.952 342 555.5 342C556.531 342 557 340.965 557 338.687C557 335.393 557.027 335.375 561.75 335.437C567.778 335.517 570.535 331.52 568.796 325.222C567.335 319.931 561.071 316.502 559.714 320.25C559.358 321.233 558.825 321.243 557.22 320.297C555.547 319.312 555.071 319.371 554.589 320.629ZM268 325.066C268 331.033 266.672 334 264 334C261.393 334 260 331.062 260 325.566C260 322.174 259.614 321 258.5 321C256.37 321 256.443 330.76 258.597 333.835C259.935 335.745 260.91 336.054 264.61 335.744C270.435 335.256 270.801 334.673 270.243 326.75C269.689 318.892 268 317.624 268 325.066ZM196.347 322.463C200.374 325.514 198.216 334 193.413 334C189.22 334 187.361 326.469 190.655 322.829C192.619 320.659 193.86 320.579 196.347 322.463ZM220 323C223.735 326.735 221.968 334 217.325 334C214.194 334 212.075 331.498 212.032 327.75C212.001 325.07 214.996 321 217 321C217.55 321 218.9 321.9 220 323ZM244.113 323.113C246.445 325.445 246.245 331.593 243.785 333.154C238.311 336.628 233.519 328.987 237.557 323.223C239.507 320.438 241.407 320.407 244.113 323.113ZM377 323C380.707 326.707 378.373 334 373.478 334C369.223 334 367.328 326.505 370.655 322.829C372.789 320.47 374.517 320.517 377 323ZM431.375 322.484C434.173 324.602 432.719 327 428.638 327C424.576 327 422.863 324.304 425.637 322.276C427.843 320.663 429.027 320.706 431.375 322.484ZM453.066 322.035C456.526 323.887 455.525 327 451.469 327C447.26 327 445.652 324.459 448.529 322.355C450.75 320.731 450.643 320.738 453.066 322.035ZM540.811 323.039C544.862 326.813 542.606 334 537.371 334C534.114 334 531.47 328.885 533.102 325.741C535.886 320.378 537.389 319.851 540.811 323.039ZM563.984 321.992C568.687 324.508 566.733 334 561.512 334C557.266 334 555.505 327.579 558.557 323.223C560.286 320.753 561.259 320.533 563.984 321.992ZM468 326C468 326.55 470.052 327 472.559 327C475.344 327 476.878 326.611 476.5 326C476.16 325.45 474.109 325 471.941 325C469.773 325 468 325.45 468 326ZM19.6052 327.831C18.3612 329.843 32.1592 339.655 39.5002 341.979C41.7002 342.676 44.2812 343.64 45.2362 344.123C47.6042 345.319 51.2622 345.233 50.5002 344C50.1602 343.45 48.8102 343 47.5002 343C46.1902 343 44.8582 342.579 44.5402 342.064C44.2212 341.549 41.3822 339.9 38.2312 338.4C35.0792 336.899 30.2502 334.03 27.5002 332.023C20.8012 327.133 20.2252 326.828 19.6052 327.831ZM114.575 329.878C113.771 331.18 119.181 332 128.566 332C136.431 332 139.897 330.942 136.412 329.605C133.951 328.66 115.183 328.895 114.575 329.878ZM52.0002 346C52.0002 346.55 53.4632 346.993 55.2502 346.985C57.7162 346.973 58.1382 346.736 57.0002 346C55.0352 344.73 52.0002 344.73 52.0002 346ZM62.8132 348.683C63.5342 348.972 64.3972 348.936 64.7292 348.604C65.0612 348.272 64.4712 348.036 63.4172 348.079C62.2522 348.127 62.0152 348.364 62.8132 348.683ZM100.813 359.683C101.534 359.972 102.397 359.936 102.729 359.604C103.061 359.272 102.471 359.036 101.417 359.079C100.252 359.127 100.015 359.364 100.813 359.683Z" fill="#482419"/>
</svg>
